<svg width="65" height="65" viewBox="0 0 65 65" fill="none" xmlns="http://www.w3.org/2000/svg">
<g clip-path="url(#clip0_367_991)">
<path d="M61.6896 43.3577L52.0353 41.6154L57.8625 40.2436C58.3609 40.1258 58.8282 39.9226 59.2376 39.6456C59.647 39.3686 59.9904 39.0232 60.2484 38.6292C60.5064 38.2352 60.6738 37.8002 60.741 37.3491C60.8083 36.8981 60.7742 36.4397 60.6405 36.0003C60.5069 35.5609 60.2764 35.149 59.9621 34.7881C59.6479 34.4272 59.2561 34.1244 58.8092 33.897C58.3622 33.6696 57.8688 33.522 57.3571 33.4627C56.8455 33.4034 56.3256 33.4335 55.8271 33.5513L49.9017 34.9473C50.0471 34.1471 50.1807 33.34 50.1807 32.5017C50.1807 31.6635 50.0471 30.8529 49.9017 30.0527L55.835 31.4522L56.8566 31.5699C57.8098 31.5695 58.7303 31.2636 59.4466 30.7092C60.163 30.1549 60.6263 29.3899 60.7504 28.5567C60.8744 27.7235 60.6506 26.879 60.1208 26.1805C59.5909 25.482 58.7911 24.9771 57.8703 24.7598L52.0432 23.3846L61.6896 21.6457C62.3325 21.5296 62.9348 21.2806 63.447 20.919C63.9592 20.5575 64.3666 20.0938 64.6357 19.5663C64.9048 19.0387 65.0279 18.4623 64.9947 17.8846C64.9616 17.3069 64.7732 16.7444 64.4451 16.2435C64.117 15.7425 63.6586 15.3175 63.1077 15.0033C62.5567 14.6892 61.9289 14.4949 61.2761 14.4366C60.6233 14.3783 59.9641 14.4575 59.3529 14.6678C58.7416 14.8781 58.1958 15.2134 57.7603 15.6462L51.2259 22.1376L52.7897 17.0144C52.9239 16.575 52.9586 16.1166 52.8918 15.6653C52.825 15.2141 52.658 14.7789 52.4004 14.3845C51.8802 13.5881 51.0223 13.0065 50.0156 12.7676C49.009 12.5288 47.9359 12.6522 47.0324 13.1109C46.129 13.5695 45.4693 14.3257 45.1983 15.2132L43.5991 20.468C42.1609 19.4227 40.5444 18.5845 38.8092 17.9843L43.1393 14.1671C43.5042 13.8455 43.7935 13.4636 43.991 13.0434C44.1884 12.6232 44.29 12.1729 44.29 11.7181C44.29 11.2632 44.1884 10.8129 43.991 10.3927C43.7935 9.97246 43.5042 9.59065 43.1393 9.26904C42.7745 8.94743 42.3414 8.69232 41.8648 8.51827C41.3881 8.34421 40.8772 8.25463 40.3613 8.25463C39.8454 8.25463 39.3345 8.34421 38.8579 8.51827C38.3812 8.69232 37.9481 8.94743 37.5833 9.26904L33.3161 13.0309L36.432 4.79016C36.637 4.24221 36.6917 3.65919 36.5915 3.089C36.4912 2.51881 36.239 1.97771 35.8555 1.51016C35.4719 1.04261 34.9681 0.661931 34.3852 0.399408C33.8024 0.136884 33.1572 0 32.5027 0C31.8482 0 31.203 0.136884 30.6202 0.399408C30.0373 0.661931 29.5334 1.04261 29.1499 1.51016C28.7664 1.97771 28.5141 2.51881 28.4139 3.089C28.3137 3.65919 28.3683 4.24221 28.5734 4.79016L31.6893 13.0309L27.4221 9.26904C26.6853 8.61952 25.686 8.25463 24.6441 8.25463C23.6021 8.25463 22.6028 8.61952 21.866 9.26904C21.1293 9.91856 20.7153 10.7995 20.7153 11.7181C20.7153 12.6366 21.1293 13.5175 21.866 14.1671L26.1961 17.9843C24.461 18.5845 22.8444 19.4227 21.4063 20.468L19.8149 15.2201C19.6888 14.774 19.4632 14.3545 19.1513 13.986C18.8393 13.6175 18.4473 13.3075 17.998 13.074C17.5488 12.8404 17.0513 12.6881 16.5346 12.6258C16.0178 12.5635 15.4922 12.5925 14.9883 12.7112C14.4845 12.8298 14.0124 13.0357 13.5997 13.3168C13.187 13.5979 12.842 13.9486 12.5846 14.3485C12.3273 14.7484 12.1628 15.1895 12.1008 15.646C12.0388 16.1025 12.0805 16.5653 12.2235 17.0075L13.7795 22.1515L7.24898 15.6496C6.73705 15.1453 6.07657 14.7759 5.34088 14.5825C4.6052 14.389 3.82309 14.3792 3.08142 14.5539C2.33975 14.7287 1.66754 15.0813 1.13943 15.5725C0.611319 16.0637 0.247983 16.6743 0.0897675 17.3366C-0.369962 19.311 1.07603 21.2439 3.31966 21.6492L12.9622 23.3916L7.14682 24.7633C6.22603 24.9805 5.42622 25.4854 4.89637 26.184C4.36652 26.8825 4.14277 27.727 4.2668 28.5602C4.39082 29.3933 4.85417 30.1583 5.57052 30.7127C6.28687 31.267 7.20738 31.5729 8.16058 31.5734L9.1822 31.4556L15.1076 30.0562C14.93 30.8623 14.834 31.6807 14.8208 32.5017C14.8208 33.34 14.9544 34.1471 15.0998 34.9507L9.17435 33.5513C8.67588 33.4335 8.15598 33.4034 7.64432 33.4627C7.13266 33.522 6.63926 33.6696 6.19229 33.897C5.74532 34.1244 5.35354 34.4272 5.03932 34.7881C4.72509 35.149 4.49458 35.5609 4.36093 36.0003C4.22729 36.4397 4.19313 36.8981 4.26041 37.3491C4.32769 37.8002 4.49509 38.2352 4.75306 38.6292C5.01102 39.0232 5.35449 39.3686 5.76387 39.6456C6.17324 39.9226 6.6405 40.1258 7.13896 40.2436L12.9661 41.6188L3.31966 43.3577C2.56455 43.4914 1.86682 43.8085 1.30516 44.2731C0.743502 44.7377 0.340253 45.3314 0.140886 45.9872C-0.0584804 46.643 -0.0460355 47.3349 0.176819 47.9849C0.399673 48.6348 0.824073 49.2169 1.40216 49.6656C1.80878 49.9842 2.2827 50.2291 2.79678 50.386C3.31086 50.543 3.85502 50.6091 4.3981 50.5805C4.94118 50.5518 5.47252 50.429 5.96172 50.2192C6.45091 50.0093 6.88834 49.7164 7.24898 49.3573L13.7913 42.852L12.2274 47.9925C12.0937 48.4319 12.0595 48.8903 12.1268 49.3413C12.194 49.7924 12.3614 50.2274 12.6194 50.6215C12.8774 51.0155 13.2208 51.3609 13.6303 51.6379C14.0397 51.9149 14.507 52.1181 15.0055 52.2358L16.0271 52.3536C16.8913 52.3529 17.7312 52.1011 18.4167 51.6371C19.1022 51.173 19.595 50.5227 19.8189 49.7868L21.4142 44.5389C22.8523 45.5712 24.4437 46.4233 26.2079 47.0191L21.87 50.8364C21.5051 51.158 21.2158 51.5398 21.0183 51.96C20.8209 52.3802 20.7193 52.8306 20.7193 53.2854C20.7193 53.7402 20.8209 54.1906 21.0183 54.6108C21.2158 55.031 21.5051 55.4128 21.87 55.7344C22.6067 56.3839 23.606 56.7488 24.648 56.7488C25.1639 56.7488 25.6748 56.6592 26.1514 56.4852C26.6281 56.3111 27.0612 56.056 27.426 55.7344L30.2001 53.2854H31.1903L28.5734 60.2098C28.3683 60.7578 28.3137 61.3408 28.4139 61.911C28.5141 62.4812 28.7664 63.0223 29.1499 63.4898C29.5334 63.9574 30.0373 64.3381 30.6202 64.6006C31.203 64.8631 31.8482 65 32.5027 65C33.1572 65 33.8024 64.8631 34.3852 64.6006C34.9681 64.3381 35.4719 63.9574 35.8555 63.4898C36.239 63.0223 36.4912 62.4812 36.5915 61.911C36.6917 61.3408 36.637 60.7578 36.432 60.2098L33.8151 53.2854H34.8053L37.5833 55.7344C38.3201 56.3839 39.3194 56.7488 40.3613 56.7488C41.4033 56.7488 42.4026 56.3839 43.1393 55.7344C43.8761 55.0849 44.29 54.204 44.29 53.2854C44.29 52.3668 43.8761 51.4859 43.1393 50.8364L38.8092 47.0157C40.5457 46.4158 42.1637 45.5776 43.603 44.532L45.1983 49.7868C45.4221 50.5227 45.915 51.173 46.6004 51.6371C47.2859 52.1011 48.1258 52.3529 48.9901 52.3536L50.0117 52.2358C50.5102 52.1181 50.9775 51.9149 51.3869 51.6379C51.7963 51.3609 52.1398 51.0155 52.3978 50.6215C52.6558 50.2274 52.8232 49.7924 52.8904 49.3413C52.9577 48.8903 52.9235 48.4319 52.7897 47.9925L51.2298 42.8659L57.7603 49.3573C58.1958 49.79 58.7416 50.1253 59.3529 50.3356C59.9641 50.5459 60.6233 50.6252 61.2761 50.5669C61.9289 50.5085 62.5567 50.3143 63.1077 50.0001C63.6586 49.686 64.117 49.2609 64.4451 48.76C64.7732 48.2591 64.9616 47.6966 64.9947 47.1188C65.0279 46.5411 64.9048 45.9648 64.6357 45.4372C64.3666 44.9096 63.9592 44.446 63.447 44.0844C62.9348 43.7229 62.3325 43.4738 61.6896 43.3577ZM32.5027 41.1616C27.0842 41.1616 22.6794 37.2785 22.6794 32.5017C22.6794 27.7249 27.0842 23.8419 32.5027 23.8419C37.9212 23.8419 42.326 27.7249 42.326 32.5017C42.326 37.2785 37.9212 41.1616 32.5027 41.1616Z" fill="#184A45"/>
</g>
<defs>
<clipPath id="clip0_367_991">
<rect width="65" height="65" fill="white"/>
</clipPath>
</defs>
</svg>
